<?xml version="1.0" encoding="utf-8"?>
<!DOCTYPE svg PUBLIC "-//W3C//DTD SVG 20010904//EN" "http://www.w3.org/TR/2001/REC-SVG-20010904/DTD/svg10.dtd">
<svg version="1.0" xmlns="http://www.w3.org/2000/svg" width="30px" height="32px" viewBox="0 0 30 32" preserveAspectRatio="xMidYMid meet">
 <g fill="#000000">
  <path d="M2.1 29.3 c-1.9 -2 -2.1 -2.7 -1 -3.5 1.1 -0.7 1.1 -1.1 0.2 -1.5 -0.7 -0.2 -1.3 -1.7 -1.3 -3.3 0 -1.6 0.6 -3.1 1.3 -3.4 1 -0.5 1 -0.7 0 -1.2 -1.5 -0.7 -1.7 -4.4 -0.3 -4.4 0.6 0 1 -0.9 1 -2 0 -1.1 0.5 -2 1 -2 0.6 0 1 -0.7 1 -1.6 0 -2 2.4 -4.4 4.4 -4.4 0.9 0 1.6 -0.4 1.6 -1 0 -0.6 2.7 -1 6 -1 5.5 0 7.9 1.2 4.8 2.3 -0.9 0.3 -0.6 1.1 1 2.4 1.2 1.1 2.2 2.7 2.2 3.4 0 0.8 0.9 2.1 2 2.9 2.2 1.6 2.7 4.6 0.8 5.3 -0.9 0.3 -0.6 1.1 1 2.4 2.9 2.6 3 7.3 0.2 7.3 -1.1 0 -2 0.4 -2 0.8 0 0.4 0.9 1.4 2 2.2 1.1 0.8 2 1.8 2 2.2 0 0.4 -5.7 0.8 -12.7 0.7 l-12.8 0 -2.4 -2.6z"/>
 </g>
 <g fill="#f84040">
  <path d="M3.1 28.4 l-1.4 -1.6 1.4 -1 c1.1 -0.7 1.1 -1.1 0.2 -1.5 -1.7 -0.6 -1.7 -6 0 -6.7 1 -0.5 1 -0.7 0 -1.2 -1.5 -0.7 -1.7 -4.4 -0.3 -4.4 0.6 0 1 -0.9 1 -2 0 -1.1 0.5 -2 1 -2 0.6 0 1 -0.9 1 -2 0 -1.3 0.7 -2 2 -2 1.1 0 2 -0.4 2 -1 0 -0.5 1.6 -1 3.5 -1 3.7 0 8.5 3.5 8.5 6.2 0 0.8 0.9 2 2 2.8 2.2 1.6 2.7 4.6 0.8 5.3 -0.9 0.3 -0.6 1.1 1 2.4 2.2 2.1 3 5.3 1.2 5.3 -0.5 0 -1 -0.4 -1 -1 0 -0.5 -0.4 -1 -1 -1 -0.5 0 -1 1.4 -1 3 0 1.7 0.5 3 1 3 0.6 0 1 0.5 1 1 0 0.6 -0.9 1 -2 1 -1.1 0 -2 -0.4 -2 -1 0 -0.5 -1.3 -1 -3 -1 -1.6 0 -3 0.5 -3 1 0 1.7 -11.3 1.1 -12.9 -0.6z m7.5 -1.8 c1.6 -1.7 1.9 -4.6 0.4 -4.6 -0.5 0 -1 -0.4 -1 -1 0 -0.5 1.8 -1 4 -1 2.2 0 4 -0.4 4 -1 0 -0.5 0.7 -1 1.6 -1 2.2 0 5.3 -3.2 3.6 -3.8 -0.6 -0.2 -1.2 -1 -1.2 -1.9 0 -1.9 -2.4 -4.3 -4.4 -4.3 -0.9 0 -1.6 -0.4 -1.6 -1 0 -0.5 -1.3 -1 -3 -1 -1.6 0 -3 0.5 -3 1 0 0.6 -0.9 1 -2 1 -1.5 0 -2 0.7 -2 2.9 0 1.6 -0.6 3.1 -1.2 3.3 -1.7 0.6 1.4 3.8 3.6 3.8 1.9 0 2.1 1.6 0.4 2.4 -1 0.5 -1 0.7 0 1.2 0.6 0.3 1.2 1.4 1.2 2.5 0 1.4 -0.7 1.9 -3 1.9 -1.6 0 -3 0.5 -3 1 0 1.5 4.9 1.2 6.6 -0.4z m10.1 -2.1 c0.8 -0.9 1.2 -1.9 0.8 -2.3 -0.4 -0.4 -1 -0.1 -1.2 0.6 -0.3 0.6 -1.3 1.2 -2.4 1.2 -1 0 -1.9 0.5 -1.9 1 0 1.5 3 1.2 4.7 -0.5z"/>
  <path d="M16 13.4 c0 -0.3 0.6 -1.2 1.4 -2 2 -1.9 2.6 -1.8 2.6 0.6 0 1.3 -0.7 2 -2 2 -1.1 0 -2 -0.3 -2 -0.6z"/>
 </g>
 <g fill="#a80000">
  <path d="M3.1 28.4 l-1.4 -1.6 1.4 -1 c1.1 -0.7 1.1 -1.1 0.2 -1.5 -1.7 -0.6 -1.6 -5.1 0.1 -6.9 2 -1.9 2.6 -1.8 2.6 0.6 0 1.1 -0.4 2 -1 2 -0.5 0 -1 0.9 -1 2 0 2.4 2.5 2.6 4.7 0.4 1.4 -1.3 1.4 -1.7 0.2 -2.4 -0.7 -0.5 -1 -1.3 -0.5 -1.7 0.5 -0.4 1.1 -0.2 1.3 0.5 0.3 0.7 2.1 1.2 4.3 1.2 2.2 0 4 -0.5 4.3 -1.2 0.2 -0.7 0.8 -1 1.2 -0.6 1.4 1.3 -2.3 3.8 -5.7 3.8 -2.2 0 -3.9 0.7 -4.8 2 -0.8 1.1 -2.2 2 -3.2 2 -1 0 -1.8 0.5 -1.8 1 0 1.5 5.7 1.2 6.4 -0.2 0.5 -1 0.7 -1 1.2 0 0.7 1.4 4.4 1.6 4.4 0.2 0 -1.6 5 -1.2 6.7 0.5 0.8 0.9 1.2 1.9 0.8 2.3 -0.4 0.4 -1 0.1 -1.2 -0.5 -0.5 -1.5 -6.3 -1.8 -6.3 -0.3 0 1.7 -11.3 1.1 -12.9 -0.6z"/>
  <path d="M25.1 22.4 c-1.8 -2.1 -0.6 -3 1.4 -1.1 0.8 0.9 1.5 1.8 1.5 2.1 0 1.1 -1.5 0.5 -2.9 -1z"/>
  <path d="M23.3 14.5 c-0.7 -0.8 -1.3 -2.1 -1.3 -3 0 -0.8 -0.4 -1.5 -1 -1.5 -0.5 0 -1 0.9 -1 2 0 1.3 -0.7 2 -2 2 -1.1 0 -2 -0.4 -2 -0.8 0 -0.4 0.9 -1.4 2 -2.2 1.1 -0.8 2 -1.8 2 -2.2 0 -0.4 -0.9 -0.8 -2 -0.8 -1.1 0 -2 -0.4 -2 -1 0 -0.5 -0.9 -1 -2 -1 -1.1 0 -2 -0.4 -2 -1 0 -0.5 1.1 -1 2.5 -1 2.9 0 11.5 7.9 11.5 10.5 0 1.9 -1.1 1.9 -2.7 0z"/>
  <path d="M4 13 c0 -0.5 0.5 -1 1 -1 0.6 0 1 0.5 1 1 0 0.6 -0.4 1 -1 1 -0.5 0 -1 -0.4 -1 -1z"/>
  <path d="M8 7 c0 -0.5 0.5 -1 1 -1 0.6 0 1 0.5 1 1 0 0.6 -0.4 1 -1 1 -0.5 0 -1 -0.4 -1 -1z"/>
 </g>
 <g fill="#f8f8f8">
  <path d="M6 25.4 c0 -1 3.1 -3.6 3.7 -3.1 0.3 0.3 -0.2 1.3 -1 2.2 -1.6 1.5 -2.7 1.9 -2.7 0.9z"/>
  <path d="M26 23 c0 -0.5 0.5 -1 1 -1 0.6 0 1 0.5 1 1 0 0.6 -0.4 1 -1 1 -0.5 0 -1 -0.4 -1 -1z"/>
  <path d="M8 12 c0 -2.4 0.6 -2.5 2.6 -0.6 1.9 2 1.8 2.6 -0.6 2.6 -1.3 0 -2 -0.7 -2 -2z"/>
  <path d="M16 13.4 c0 -0.7 2.7 -3.4 3.4 -3.4 0.3 0 0.6 0.9 0.6 2 0 1.3 -0.7 2 -2 2 -1.1 0 -2 -0.3 -2 -0.6z"/>
 </g>
</svg>